<svg width="192" height="192" viewBox="0 0 192 192" fill="none" xmlns="http://www.w3.org/2000/svg">
  <rect width="192" height="192" rx="32" fill="url(#gradient)"/>
  <defs>
    <linearGradient id="gradient" x1="0" y1="0" x2="192" y2="192">
      <stop offset="0%" stop-color="#3b82f6"/>
      <stop offset="100%" stop-color="#f97316"/>
    </linearGradient>
  </defs>
  <path d="M96 48C70.5 48 48 70.5 48 96C48 121.5 70.5 144 96 144C121.5 144 144 121.5 144 96C144 70.5 121.5 48 96 48ZM96 132C77.2 132 60 114.8 60 96C60 77.2 77.2 60 96 60C114.8 60 132 77.2 132 96C132 114.8 114.8 132 96 132Z" fill="white"/>
  <circle cx="96" cy="96" r="24" fill="white"/>
</svg>
