<svg width="512" height="512" viewBox="0 0 512 512" fill="none" xmlns="http://www.w3.org/2000/svg">
  <rect width="512" height="512" rx="128" fill="url(#gradient)"/>
  <defs>
    <linearGradient id="gradient" x1="0" y1="0" x2="512" y2="512" gradientUnits="userSpaceOnUse">
      <stop offset="0%" stop-color="#3b82f6"/>
      <stop offset="100%" stop-color="#f97316"/>
    </linearGradient>
  </defs>
  
  <!-- Ícone de carro estilizado -->
  <g transform="translate(128, 160) scale(2.5)">
    <!-- Corpo do carro -->
    <path d="M12 20H4C2.9 20 2 19.1 2 18V12C2 10.9 2.9 10 4 10H12M12 20H20C21.1 20 22 19.1 22 18V12C22 10.9 21.1 10 20 10H12M12 20V10" 
          stroke="white" stroke-width="3" stroke-linecap="round" stroke-linejoin="round" fill="none"/>
    
    <!-- Teto do carro -->
    <path d="M4 10L8 4H16L20 10" 
          stroke="white" stroke-width="3" stroke-linecap="round" stroke-linejoin="round" fill="none"/>
    
    <!-- Rodas -->
    <circle cx="8" cy="20" r="3" stroke="white" stroke-width="2.5" fill="none"/>
    <circle cx="16" cy="20" r="3" stroke="white" stroke-width="2.5" fill="none"/>
    
    <!-- Detalhes -->
    <line x1="2" y1="14" x2="22" y2="14" stroke="white" stroke-width="2" stroke-linecap="round"/>
    <circle cx="6" cy="14" r="1.5" fill="white"/>
    <circle cx="18" cy="14" r="1.5" fill="white"/>
  </g>
  
  <!-- Símbolo de IA (circuito) -->
  <g transform="translate(320, 350) scale(2)" opacity="0.9">
    <circle cx="12" cy="12" r="10" stroke="white" stroke-width="2" fill="none"/>
    <circle cx="12" cy="12" r="3" fill="white"/>
    <line x1="12" y1="2" x2="12" y2="7" stroke="white" stroke-width="2"/>
    <line x1="12" y1="17" x2="12" y2="22" stroke="white" stroke-width="2"/>
    <line x1="2" y1="12" x2="7" y2="12" stroke="white" stroke-width="2"/>
    <line x1="17" y1="12" x2="22" y2="12" stroke="white" stroke-width="2"/>
  </g>
</svg>
